<svg id="Layer_1" data-name="Layer 1" xmlns="http://www.w3.org/2000/svg" width="40" height="40"><defs><style>.cls-2{fill:#555d66}</style></defs><path class="cls-2" d="M26.44 30.205l-5.38 5.379a1.5 1.5 0 01-2.12 0l-5.38-5.379a1.5 1.5 0 011.061-2.56H17.5V12.402h-2.878a1.5 1.5 0 01-1.061-2.56l5.378-5.38a1.5 1.5 0 012.122 0l5.378 5.38a1.5 1.5 0 01-1.06 2.56H22.5v15.243h2.879a1.5 1.5 0 011.06 2.56zM0 0h2.5v4H0z"/><path class="cls-2" d="M35.608 4h-4.73V0h4.73zm-6.622 0h-4.73V0h4.73zm-6.62 0h-4.73V0h4.73zm-6.622 0h-4.73V0h4.73zM9.122 4h-4.73V0h4.73zM37.5 0H40v4h-2.5zM0 36h2.5v4H0zm35.608 4h-4.73v-4h4.73zm-6.622 0h-4.73v-4h4.73zm-6.62 0h-4.73v-4h4.73zm-6.622 0h-4.73v-4h4.73zm-6.622 0h-4.73v-4h4.73zM37.5 36H40v4h-2.5z"/></svg>