<svg id="Layer_1" data-name="Layer 1" xmlns="http://www.w3.org/2000/svg" width="40" height="40"><defs><style>.cls-1{fill:#555d66}</style></defs><path class="cls-1" d="M36 4v32H4V4h32m0-4H4a4 4 0 00-4 4v32a4 4 0 004 4h32a4 4 0 004-4V4a4 4 0 00-4-4z"/><path class="cls-1" d="M19.425 9.714a1.215 1.215 0 011.721 0l9.873 9.867a1.214 1.214 0 010 1.722l-9.873 9.872a1.215 1.215 0 01-1.721 0l-1.127-1.128a1.219 1.219 0 01.02-1.741l6.12-5.83H9.842a1.215 1.215 0 01-1.219-1.22v-1.624a1.215 1.215 0 011.219-1.219h14.595l-6.12-5.83a1.21 1.21 0 01-.02-1.741z"/></svg>