<svg id="Layer_1" data-name="Layer 1" xmlns="http://www.w3.org/2000/svg" width="40" height="40"><defs><style>.cls-1{fill:#555d66}</style></defs><path class="cls-1" d="M36 4v32H4V4h32m0-4H4a4 4 0 00-4 4v32a4 4 0 004 4h32a4 4 0 004-4V4a4 4 0 00-4-4z"/><path class="cls-1" d="M30.729 17.87a1.214 1.214 0 010 1.722l-9.867 9.872a1.214 1.214 0 01-1.721 0l-9.872-9.872a1.214 1.214 0 010-1.722l1.127-1.127a1.219 1.219 0 011.742.02l5.83 6.12V8.288a1.215 1.215 0 011.219-1.219h1.625a1.216 1.216 0 011.218 1.22v14.594l5.83-6.12a1.212 1.212 0 011.742-.02z"/><path class="cls-1" d="M30 32H11a2 2 0 010-4h19a2 2 0 010 4z"/></svg>