<svg id="Layer_1" data-name="Layer 1" xmlns="http://www.w3.org/2000/svg" width="40" height="40" viewBox="0 0 40 40"><defs><style>.cls-1{fill:#555d66;}.cls-2{isolation:isolate;}</style></defs><path class="cls-1" d="M36,4V36H4V4H36m0-4H4A4,4,0,0,0,0,4V36a4,4,0,0,0,4,4H36a4,4,0,0,0,4-4V4A4,4,0,0,0,36,0Z"/><g class="cls-2"><path class="cls-1" d="M30.72852,17.87012a1.21362,1.21362,0,0,1,0,1.72168L20.8623,29.46387a1.21361,1.21361,0,0,1-1.72168,0L9.26855,19.5918a1.21362,1.21362,0,0,1,0-1.72168l1.12793-1.127a1.21893,1.21893,0,0,1,1.74122.02051l5.83007,6.11914V8.28809a1.21533,1.21533,0,0,1,1.21875-1.21875h1.625a1.21594,1.21594,0,0,1,1.21875,1.21875V22.88281l5.82911-6.11914a1.21163,1.21163,0,0,1,1.74218-.02051Z"/></g><path class="cls-1" d="M30,32H11a2,2,0,0,1,0-4H30a2,2,0,0,1,0,4Z"/></svg>