<svg id="Layer_1" data-name="Layer 1" xmlns="http://www.w3.org/2000/svg" width="40" height="40"><defs><style>.cls-1{fill:#555d66}</style></defs><path class="cls-1" d="M36 4v32H4V4h32m0-4H4a4 4 0 00-4 4v32a4 4 0 004 4h32a4 4 0 004-4V4a4 4 0 00-4-4z"/><path class="cls-1" d="M23.604 27.756l-.018.018-3.413 3.413A7.719 7.719 0 019.257 20.271l1.885-1.884a.812.812 0 011.385.539 9.365 9.365 0 00.493 2.677.818.818 0 01-.193.843l-.664.665a3.656 3.656 0 105.138 5.203l3.412-3.412a3.655 3.655 0 000-5.17 3.869 3.869 0 00-.525-.436.916.916 0 01-.353-.64 2.02 2.02 0 01.594-1.513l1.07-1.07a.816.816 0 011.044-.088 9.388 9.388 0 011.043.873 7.715 7.715 0 01.018 10.898zm7.138-7.139l-1.884 1.885a.813.813 0 01-1.386-.54 9.332 9.332 0 00-.493-2.676.818.818 0 01.193-.844l.665-.665a3.656 3.656 0 10-5.138-5.203l-3.413 3.412a3.657 3.657 0 000 5.171 3.93 3.93 0 00.525.436.91.91 0 01.353.64 2.02 2.02 0 01-.594 1.513l-1.069 1.07a.816.816 0 01-1.045.087 9.468 9.468 0 01-1.042-.873 7.715 7.715 0 01-.018-10.897l.018-.019 3.412-3.413a7.719 7.719 0 0110.916 10.916z"/></svg>