<svg id="Layer_1" data-name="Layer 1" xmlns="http://www.w3.org/2000/svg" width="40" height="40" viewBox="0 0 40 40"><defs><style>.cls-1{isolation:isolate;}.cls-2{fill:#555d66;}</style></defs><g class="cls-1"><path class="cls-2" d="M26.43945,30.20508l-5.3789,5.3789a1.49946,1.49946,0,0,1-2.1211,0l-5.3789-5.3789a1.50006,1.50006,0,0,1,1.06054-2.56055H17.5V12.40234H14.62158a1.50009,1.50009,0,0,1-1.061-2.56054l5.3789-5.37891a1.49946,1.49946,0,0,1,2.1211,0l5.3789,5.37891a1.49995,1.49995,0,0,1-1.06054,2.56054H22.5V27.64453h2.87891A1.5,1.5,0,0,1,26.43945,30.20508Z"/></g><rect class="cls-2" width="2.5" height="4"/><path class="cls-2" d="M35.6084,4H30.87891V0H35.6084ZM28.98633,4H24.25684V0h4.72949Zm-6.6211,0h-4.73V0h4.73ZM15.74365,4h-4.73V0h4.73ZM9.12158,4H4.39209V0H9.12158Z"/><rect class="cls-2" x="37.5" width="2.5" height="4"/><rect class="cls-2" y="36" width="2.5" height="4"/><path class="cls-2" d="M35.6084,40H30.87891V36H35.6084Zm-6.62207,0H24.25684V36h4.72949Zm-6.6211,0h-4.73V36h4.73Zm-6.62158,0h-4.73V36h4.73ZM9.12158,40H4.39209V36H9.12158Z"/><rect class="cls-2" x="37.5" y="36" width="2.5" height="4"/></svg>