<svg id="Layer_1" data-name="Layer 1" xmlns="http://www.w3.org/2000/svg" width="40" height="40" viewBox="0 0 40 40"><defs><style>.cls-1{fill:#555d66;}.cls-2{isolation:isolate;}</style></defs><path class="cls-1" d="M36,4V36H4V4H36m0-4H4A4,4,0,0,0,0,4V36a4,4,0,0,0,4,4H36a4,4,0,0,0,4-4V4A4,4,0,0,0,36,0Z"/><g class="cls-2"><path class="cls-1" d="M23.60352,27.75586l-.01758.01855L20.17285,31.1875a7.71879,7.71879,0,0,1-10.916-10.916l1.88476-1.88476a.81194.81194,0,0,1,1.38574.53906,9.36511,9.36511,0,0,0,.49219,2.67676.81843.81843,0,0,1-.19238.84375l-.66406.665a3.65617,3.65617,0,1,0,5.13769,5.20312l3.41211-3.41211a3.65491,3.65491,0,0,0,0-5.17089,3.869,3.869,0,0,0-.52539-.43555.9164.9164,0,0,1-.35254-.63965,2.02081,2.02081,0,0,1,.59375-1.51367l1.06934-1.06934a.81586.81586,0,0,1,1.04492-.08789,9.38758,9.38758,0,0,1,1.043.873A7.7154,7.7154,0,0,1,23.60352,27.75586Zm7.13867-7.13867L28.8584,22.502a.81263.81263,0,0,1-1.38672-.53906,9.3316,9.3316,0,0,0-.49219-2.67676.81844.81844,0,0,1,.19239-.84375l.665-.665a3.65618,3.65618,0,1,0-5.13769-5.20312l-3.41309,3.41211a3.65669,3.65669,0,0,0,0,5.1709,3.9297,3.9297,0,0,0,.52539.43554.90937.90937,0,0,1,.35254.63965,2.0208,2.0208,0,0,1-.59375,1.51367L18.501,24.81543a.81577.81577,0,0,1-1.04493.08789,9.46752,9.46752,0,0,1-1.042-.873,7.7154,7.7154,0,0,1-.01855-10.89746l.01855-.01855,3.41211-3.41309a7.71879,7.71879,0,0,1,10.916,10.916Z"/></g></svg>